<svg width="12" height="12" viewBox="0 0 12 12" fill="none" xmlns="http://www.w3.org/2000/svg">
<path d="M5.33182 1.35013C5.54667 0.914807 6.16742 0.914805 6.38227 1.35013L7.44211 3.49761C7.52742 3.67047 7.69234 3.79029 7.88311 3.81801L10.253 4.16237C10.7334 4.23218 10.9252 4.82256 10.5776 5.16141L8.86273 6.83298C8.72469 6.96754 8.6617 7.16141 8.69429 7.35141L9.09911 9.71172C9.18117 10.1902 8.67897 10.5551 8.24928 10.3292L6.1296 9.21477C5.95897 9.12506 5.75512 9.12506 5.58449 9.21477L3.46481 10.3292C3.03512 10.5551 2.53291 10.1902 2.61498 9.71172L3.0198 7.35141C3.05239 7.16141 2.9894 6.96754 2.85135 6.83298L1.13649 5.16141C0.788867 4.82256 0.98069 4.23218 1.4611 4.16237L3.83098 3.81801C4.02175 3.79029 4.18666 3.67047 4.27198 3.49761L5.33182 1.35013Z" fill="#2D2D2D"/>
</svg>
